<svg xmlns="http://www.w3.org/2000/svg" xmlns:xlink="http://www.w3.org/1999/xlink" viewBox="0 0 479.69 652.51"><defs><style>.cls-1,.cls-2,.cls-4,.cls-5,.cls-6{stroke:#231f20;stroke-miterlimit:10;}.cls-1{fill:url(#radial-gradient);}.cls-2{fill:url(#radial-gradient-2);}.cls-3{font-size:68.41px;fill:#d1d3d4;font-family:MonotypeCorsiva, Monotype Corsiva;}.cls-4{fill:#fff;}.cls-5{fill:none;}.cls-6{fill:#fbb040;}.cls-7{fill:#f9ed32;}</style><radialGradient id="radial-gradient" cx="239.84" cy="412.28" r="235.44" gradientUnits="userSpaceOnUse"><stop offset="0.61" stop-color="#8dc63f"/><stop offset="0.67" stop-color="#86c33f"/><stop offset="0.74" stop-color="#72bd40"/><stop offset="0.83" stop-color="#52b141"/><stop offset="0.93" stop-color="#26a143"/><stop offset="1" stop-color="#009444"/></radialGradient><radialGradient id="radial-gradient-2" cx="306" cy="396" fx="327.2996140156835" fy="463.16830875824394" r="274.9" gradientUnits="userSpaceOnUse"><stop offset="0" stop-color="#fff33b"/><stop offset="0.11" stop-color="#feec3b"/><stop offset="0.27" stop-color="#fcd83b"/><stop offset="0.47" stop-color="#f8b83b"/><stop offset="0.69" stop-color="#f28b3a"/><stop offset="0.92" stop-color="#ec533a"/><stop offset="1" stop-color="#e93e3a"/></radialGradient></defs><g id="Circle_Back" data-name="Circle Back"><circle class="cls-1" cx="239.84" cy="412.28" r="235.44"/><path class="cls-2" d="M503.1,396c0,108.86-88.24,197.1-197.1,197.1S108.9,504.86,108.9,396A197.09,197.09,0,0,1,306,198.9C414.86,198.9,503.1,287.14,503.1,396Z" transform="translate(-66.16 16.28)"/><text class="cls-3" transform="matrix(0.71, -0.7, 0.7, 0.71, 59.19, 252.2)">T</text><text class="cls-3" transform="translate(82.8 229) rotate(-36.6) scale(0.99 1)">h</text><text class="cls-3" transform="matrix(0.85, -0.51, 0.51, 0.86, 106.42, 211.51)">e</text><text class="cls-3" transform="translate(126.09 199.94) rotate(-26.33) scale(0.99 1)"> </text><text class="cls-3" transform="matrix(0.94, -0.33, 0.34, 0.94, 138.51, 192.85)">E</text><text class="cls-3" transform="matrix(0.97, -0.2, 0.2, 0.98, 177.49, 179.47)">g</text><text class="cls-3" transform="matrix(0.99, -0.09, 0.09, 1, 203.5, 174.17)">g</text><text class="cls-3" transform="translate(230.08 171.93) rotate(0.65) scale(0.99 1)">s</text><text class="cls-3" transform="translate(251.37 172.12) rotate(5.87) scale(0.99 1)">e</text><text class="cls-3" transform="matrix(0.97, 0.21, -0.21, 0.98, 273.81, 174.21)">p</text><text class="cls-3" transform="matrix(0.95, 0.31, -0.31, 0.95, 302.46, 180.49)">t</text><text class="cls-3" transform="translate(322.85 187.21) rotate(22.45) scale(0.99 1)">i</text><text class="cls-3" transform="matrix(0.88, 0.46, -0.46, 0.89, 337.65, 193.05)">o</text><text class="cls-3" transform="matrix(0.82, 0.56, -0.56, 0.83, 361.22, 205.15)">n</text><text class="cls-3" transform="matrix(0.75, 0.66, -0.66, 0.75, 386.41, 222.39)">a</text><text class="cls-3" transform="translate(407.37 241.14) rotate(46.48) scale(0.99 1)">l</text></g><g id="Background_eggs" data-name="Background eggs"><path class="cls-4" d="M140.12,503.72c27.37,46.18,99.59-58.54,86.4-123.12-13.68-67-39.6-108-66.81-116.69C159.71,263.91,59.48,367.64,140.12,503.72Z" transform="translate(-66.16 16.28)"/><path class="cls-4" d="M42.92,380.6" transform="translate(-66.16 16.28)"/><path class="cls-4" d="M468,508.24C439.88,554,375.44,450,388.64,385.46c13.68-67,39.6-108,66.81-116.68C455.45,268.78,552.57,370.93,468,508.24Z" transform="translate(-66.16 16.28)"/></g><g id="open_egg" data-name="open egg"><path class="cls-4" d="M399.68,402.41c-4,69.84-26.64,106.17-97.61,106.17-50.71,0-88.37-55.76-88.87-120.4-.24-30.5,21.27-63.81,21.27-63.81v42.85l33.19-17.28,32.71,22.32,37.13-23.95,27.86,26.83,12.17-47.51S401.22,375.69,399.68,402.41Z" transform="translate(-66.16 16.28)"/><polyline class="cls-5" points="168.32 340.64 225.88 354.4 246.04 334.96 284.92 360.88 292.84 334.96 308.51 355.07 311.37 343.91"/></g><g id="SunnyEgg"><path id="white" class="cls-4" d="M239.07,471.22S-.88,448.75,123.92,522.69c141.4,83.79,236.31,3.54,372.91,2.84,63.33-.33-124.93-60-168.8-54.31S239.07,471.22,239.07,471.22Z" transform="translate(-66.16 16.28)"/><path id="yolk" class="cls-6" d="M356.42,476.4c98,64.38-152.28,15.92-152.28,15.92S241.7,401.06,356.42,476.4Z" transform="translate(-66.16 16.28)"/><path id="shine" class="cls-7" d="M353.77,508.88c20.65-4.44-18.87-44.28-18.87-44.28s36.83,19.53,42.94,32.76C382.74,508,353.77,508.88,353.77,508.88Z" transform="translate(-66.16 16.28)"/></g></svg>